<svg width="29" height="22" viewBox="0 0 29 22" fill="none" xmlns="http://www.w3.org/2000/svg">
<path d="M24.9733 6.41733L25.9733 6.42V6.41733H24.9733ZM3.69333 6.41733H2.69333V6.42L3.69333 6.41733ZM23.8 8.54667L23.036 9.19333L23.148 9.32667L23.3 9.41333L23.8 8.54667ZM23.4373 6.86C23.2234 6.70299 22.9558 6.6374 22.6935 6.67766C22.4312 6.71792 22.1957 6.86073 22.0387 7.07467C21.8817 7.28861 21.8161 7.55616 21.8563 7.81846C21.8966 8.08076 22.0394 8.31632 22.2533 8.47333L23.4373 6.86ZM6.41333 8.47333C6.51927 8.39559 6.60885 8.29774 6.67697 8.18538C6.74509 8.07302 6.79041 7.94834 6.81034 7.81846C6.83028 7.68858 6.82443 7.55605 6.79315 7.42843C6.76186 7.30081 6.70574 7.1806 6.628 7.07467C6.55026 6.96873 6.45241 6.87915 6.34005 6.81103C6.22769 6.74291 6.10301 6.69759 5.97313 6.67766C5.84325 6.65773 5.71072 6.66357 5.5831 6.69485C5.45548 6.72614 5.33527 6.78226 5.22933 6.86L6.41333 8.47333ZM14.3333 1.87467C13.304 1.87467 12.72 1.92933 12.2587 1.98667C11.8053 2.04267 11.576 2.08267 11.1413 2.08267V4.08267C11.728 4.08267 12.108 4.02 12.5013 3.972C12.888 3.924 13.3893 3.87467 14.3333 3.87467V1.87467ZM14.3333 3.87467C15.2773 3.87467 15.78 3.924 16.164 3.972C16.5587 4.02 16.9373 4.08267 17.5253 4.08267V2.08267C17.0907 2.08267 16.8613 2.04267 16.408 1.98667C15.7196 1.90399 15.0266 1.86658 14.3333 1.87467V3.87467ZM17.5253 4.084C17.8093 4.084 18.0747 4.00267 18.2653 3.932C18.4733 3.85467 18.688 3.75333 18.8947 3.64667C19.3013 3.43733 19.7733 3.15733 20.2053 2.908C20.6587 2.648 21.0853 2.41067 21.468 2.23733C21.8787 2.05067 22.1133 2 22.2067 2V0C21.6627 0 21.1 0.209333 20.6453 0.413333C20.1544 0.644159 19.6748 0.898225 19.208 1.17467C18.736 1.44667 18.3307 1.688 17.9787 1.868C17.8053 1.95733 17.672 2.01867 17.5707 2.056C17.4547 2.09867 17.4547 2.08267 17.5253 2.08267V4.084ZM22.2067 2C22.6667 2 23.1067 2.13733 23.416 2.404C23.6987 2.64667 23.9733 3.084 23.9733 3.91733H25.9733C25.9733 2.584 25.504 1.56267 24.7213 0.888C23.9667 0.238667 23.0253 0 22.2067 0V2ZM23.9733 3.91733V6.41733H25.9733V3.91733H23.9733ZM11.1413 2.084C11.212 2.084 11.212 2.09867 11.096 2.05733C10.9565 2.00257 10.8203 1.9398 10.688 1.86933C10.336 1.688 9.93067 1.44667 9.45867 1.176C9.00534 0.914667 8.504 0.632 8.02134 0.414667C7.568 0.209333 7.004 0 6.46 0V2C6.55333 2 6.788 2.052 7.19867 2.23733C7.58134 2.41067 8.00934 2.648 8.46134 2.908C8.89334 3.15733 9.36534 3.43733 9.772 3.64667C9.97867 3.75333 10.1933 3.85467 10.4013 3.932C10.592 4.00267 10.8573 4.084 11.1413 4.084V2.084ZM6.46 0C5.64133 0 4.7 0.238667 3.94534 0.888C3.16267 1.56133 2.69333 2.584 2.69333 3.916H4.69333C4.69333 3.08267 4.968 2.64667 5.25067 2.404C5.56 2.13733 6.00133 2 6.46 2V0ZM2.69333 3.91733V6.41733H4.69333V3.916L2.69333 3.91733ZM14.3333 22C16.2413 22 19.0533 21.62 21.4267 20.528C23.8053 19.4347 25.9733 17.4973 25.9733 14.3333H23.9733C23.9733 16.3773 22.6307 17.7733 20.592 18.712C18.552 19.6507 16.0427 20 14.3333 20V22ZM24.5627 7.90133C24.2298 7.51158 23.8521 7.16116 23.4373 6.86L22.2533 8.47333C22.5733 8.70933 22.8307 8.95067 23.036 9.192L24.5627 7.90133ZM23.9733 6.41333C23.9733 6.67733 23.9187 7.22667 23.7893 7.60667C23.716 7.81867 23.6747 7.81333 23.7493 7.75333C23.8266 7.69438 23.9179 7.65661 24.0143 7.64375C24.1106 7.63089 24.2086 7.64338 24.2987 7.68L23.3 9.41333C23.54 9.552 23.836 9.65333 24.1667 9.636C24.5067 9.61867 24.788 9.484 25.0013 9.31333C25.384 9.00667 25.5773 8.55867 25.6813 8.252C25.9053 7.59733 25.972 6.812 25.9747 6.42L23.9733 6.41333ZM14.3333 20C12.624 20 10.116 19.6507 8.07467 18.712C6.03467 17.7733 4.69333 16.3773 4.69333 14.3333H2.69333C2.69333 17.4973 4.86133 19.4347 7.24 20.528C9.61333 21.6213 12.4253 22 14.3333 22V20ZM4.69333 14.3333C4.69333 13.2827 4.61734 12.4173 4.71867 11.496C4.812 10.636 5.056 9.872 5.63067 9.19333L4.104 7.9C3.19734 8.97333 2.85334 10.1573 2.73067 11.2787C2.61467 12.3413 2.69333 13.492 2.69333 14.3333H4.69333ZM5.63067 9.19333C5.86195 8.92302 6.1247 8.68131 6.41333 8.47333L5.22933 6.86C4.78933 7.18267 4.41734 7.53067 4.104 7.9L5.63067 9.19333ZM2.69333 6.42C2.69467 6.812 2.76134 7.59733 2.98534 8.252C3.08934 8.55867 3.28267 9.00667 3.66534 9.31333C3.87867 9.484 4.16 9.61867 4.49867 9.636C4.83067 9.652 5.12534 9.552 5.36667 9.41333L4.368 7.68C4.45786 7.64363 4.55563 7.63127 4.65171 7.64412C4.74779 7.65698 4.83887 7.69462 4.916 7.75333C4.992 7.81333 4.95067 7.81867 4.87733 7.60667C4.76193 7.21913 4.70003 6.81764 4.69333 6.41333L2.69333 6.42Z" fill="white"/>
<path d="M15.4347 15.6666C15.4347 15.8972 14.9533 16.0839 14.36 16.0839C13.7653 16.0839 13.284 15.8972 13.284 15.6666C13.284 15.4359 13.7653 15.2506 14.36 15.2506C14.9533 15.2506 15.4347 15.4372 15.4347 15.6666ZM19 12.4586C19 13.0332 18.7107 13.4999 18.3547 13.4999C17.9987 13.4999 17.7093 13.0332 17.7093 12.4586C17.7093 11.8826 17.9987 11.4172 18.3547 11.4172C18.7107 11.4172 19 11.8852 19 12.4586ZM11 12.4586C11 13.0332 10.7107 13.4999 10.3547 13.4999C9.99867 13.4999 9.70934 13.0332 9.70934 12.4586C9.70934 11.8826 9.99867 11.4172 10.3547 11.4172C10.7107 11.4172 11 11.8852 11 12.4586Z" stroke="white" stroke-width="1.5"/>
<path d="M27.6667 14.9587C27.0227 14.5413 24.2267 13.5 23.1507 13.5M25.516 18.292C24.8707 17.8747 23.3653 16.8333 22.2893 16.8333M1 14.9587C1.64533 14.5413 4.44 13.5 5.516 13.5M3.15067 18.292C3.796 17.8747 5.30133 16.8333 6.37733 16.8333" stroke="white" stroke-width="1.5" stroke-linecap="round"/>
</svg>
