<svg width="25" height="22" viewBox="0 0 25 22" fill="none" xmlns="http://www.w3.org/2000/svg">
<path d="M24.6025 11.1132L22.7968 1.43599C22.7527 1.20011 22.6608 0.975739 22.5268 0.776689C22.3927 0.577639 22.2194 0.408114 22.0174 0.278537C21.8154 0.148961 21.589 0.0620732 21.3522 0.0232173C21.1154 -0.0156387 20.8732 -0.00564154 20.6404 0.052594L20.6063 0.0624912L14.8308 1.76589H9.80522L4.0297 0.0679895L3.99561 0.0580923C3.76281 -0.000143231 3.52055 -0.0101404 3.28374 0.0287156C3.04693 0.0675716 2.82058 0.154459 2.61859 0.284036C2.4166 0.413612 2.24326 0.583138 2.10921 0.782188C1.97517 0.981238 1.88326 1.2056 1.83914 1.44149L0.0334666 11.1132C-0.0437494 11.5005 0.0135671 11.9026 0.195936 12.2529C0.378304 12.6033 0.674798 12.8809 1.03637 13.0398C1.26798 13.1459 1.51953 13.2014 1.77426 13.2026C2.07915 13.2023 2.3784 13.1203 2.64081 12.965V17.6013C2.64081 18.7679 3.10424 19.8867 3.92916 20.7116C4.75408 21.5366 5.87291 22 7.03952 22H17.5964C18.7631 22 19.8819 21.5366 20.7068 20.7116C21.5317 19.8867 21.9952 18.7679 21.9952 17.6013V12.9661C22.2573 13.1212 22.5561 13.2032 22.8606 13.2037C23.1156 13.203 23.3676 13.1478 23.5996 13.042C23.9616 12.883 24.2584 12.6051 24.4408 12.2543C24.6232 11.9034 24.6803 11.5008 24.6025 11.1132ZM1.76106 11.4431L3.56784 1.76589L8.19419 3.1262L1.76106 11.4431ZM17.5964 20.2405H13.1977V18.845L14.6999 17.344C14.865 17.1789 14.9577 16.955 14.9577 16.7215C14.9577 16.4881 14.865 16.2642 14.6999 16.0991C14.5348 15.934 14.3109 15.8413 14.0775 15.8413C13.844 15.8413 13.6201 15.934 13.4551 16.0991L12.318 17.2373L11.1809 16.0991C11.0158 15.934 10.792 15.8413 10.5585 15.8413C10.325 15.8413 10.1012 15.934 9.93608 16.0991C9.771 16.2642 9.67827 16.4881 9.67827 16.7215C9.67827 16.955 9.771 17.1789 9.93608 17.344L11.4382 18.845V20.2405H7.03952C6.33956 20.2405 5.66826 19.9625 5.17331 19.4675C4.67835 18.9725 4.40029 18.3012 4.40029 17.6013V10.9053L10.1098 3.52538H14.525L20.2357 10.9053V17.6013C20.2357 18.3012 19.9576 18.9725 19.4627 19.4675C18.9677 19.9625 18.2964 20.2405 17.5964 20.2405ZM22.8749 11.4431L16.4418 3.1262L21.0681 1.76589L22.8749 11.4431ZM9.67876 12.7627C9.67876 13.0237 9.60136 13.2788 9.45636 13.4958C9.31136 13.7128 9.10526 13.882 8.86414 13.9819C8.62301 14.0817 8.35768 14.1079 8.1017 14.057C7.84572 14.006 7.61058 13.8804 7.42603 13.6958C7.24148 13.5112 7.1158 13.2761 7.06488 13.0201C7.01396 12.7642 7.0401 12.4988 7.13997 12.2577C7.23985 12.0166 7.40899 11.8105 7.626 11.6655C7.84301 11.5205 8.09814 11.4431 8.35914 11.4431C8.70912 11.4431 9.04477 11.5821 9.29225 11.8296C9.53973 12.0771 9.67876 12.4127 9.67876 12.7627ZM17.5964 12.7627C17.5964 13.0237 17.5191 13.2788 17.3741 13.4958C17.2291 13.7128 17.023 13.882 16.7818 13.9819C16.5407 14.0817 16.2754 14.1079 16.0194 14.057C15.7634 14.006 15.5283 13.8804 15.3437 13.6958C15.1592 13.5112 15.0335 13.2761 14.9826 13.0201C14.9317 12.7642 14.9578 12.4988 15.0577 12.2577C15.1575 12.0166 15.3267 11.8105 15.5437 11.6655C15.7607 11.5205 16.0158 11.4431 16.2768 11.4431C16.6268 11.4431 16.9625 11.5821 17.2099 11.8296C17.4574 12.0771 17.5964 12.4127 17.5964 12.7627Z" fill="white"/>
</svg>
