<svg width="22" height="20" viewBox="0 0 22 20" fill="none" xmlns="http://www.w3.org/2000/svg">
<path d="M15.9877 4.643L19.5139 1M15.9877 4.643C17.8055 5.843 19.1452 7.453 19.9495 8.594C20.2128 8.967 20.3444 9.154 20.4354 9.514C20.4979 9.83445 20.4979 10.1645 20.4354 10.485C20.3444 10.846 20.2128 11.033 19.9495 11.405C18.5082 13.45 15.3489 17 10.8024 17C8.79392 17 7.05645 16.307 5.61711 15.357M15.9877 4.643L12.1711 8.586M5.61711 15.357L2.09087 19M5.61711 15.357L9.43373 11.414M12.1711 8.586C12.5237 8.9632 12.7189 9.46841 12.7144 9.9928C12.71 10.5172 12.5064 11.0188 12.1475 11.3896C11.7886 11.7605 11.303 11.9708 10.7954 11.9753C10.2879 11.9799 9.79884 11.7783 9.43373 11.414M12.1711 8.586L9.43373 11.414M2.92331 13C2.4705 12.4948 2.04678 11.9625 1.65433 11.406C1.39104 11.033 1.2594 10.846 1.16842 10.486C1.10597 10.1655 1.10597 9.83545 1.16842 9.515C1.2594 9.154 1.39104 8.967 1.65433 8.595C3.09657 6.55 6.25595 3 10.8024 3C11.3735 3 11.9233 3.056 12.4508 3.158" stroke="white" stroke-width="1.5" stroke-linecap="round" stroke-linejoin="round"/>
</svg>
