<svg width="20" height="20" viewBox="0 0 20 20" fill="none" xmlns="http://www.w3.org/2000/svg">
<path d="M6.699 8.64612L6.595 8.15612M11.59 7.60612L11.486 7.11612M6.5 13.5701C7.758 13.8861 9.186 13.8861 10.623 13.5011C12.059 13.1161 13.295 12.4021 14.227 11.5001M10.587 13.6371L11.065 14.6111C11.1515 14.7885 11.2721 14.9471 11.4199 15.0777C11.5678 15.2084 11.74 15.3086 11.9266 15.3727C12.1133 15.4367 12.3107 15.4632 12.5077 15.4508C12.7046 15.4384 12.8972 15.3873 13.0743 15.3003C13.2514 15.2133 13.4097 15.0923 13.54 14.9441C13.6702 14.7959 13.77 14.6234 13.8335 14.4366C13.897 14.2498 13.923 14.0522 13.9101 13.8553C13.8971 13.6584 13.8454 13.466 13.758 13.2891L13.298 12.3541M1 16.5621V10.0441C1 5.05012 5.03 1.00012 10 1.00012C14.97 1.00012 19 5.05012 19 10.0441V16.5611C19 17.7231 18.033 19.0801 17 18.5611C16.165 18.1411 14.777 18.0411 14 18.5611C13.126 19.1461 11.874 19.1461 11 18.5611C10.115 17.9681 9.351 17.9911 8.5 18.5611C7.626 19.1461 6.374 19.1461 5.5 18.5611C4.723 18.0411 3.835 18.1411 3 18.5611C1.967 19.0801 1 17.7241 1 16.5621Z" stroke="white" stroke-width="1.5" stroke-linecap="round" stroke-linejoin="round"/>
</svg>
