<svg width="17" height="18" viewBox="0 0 17 18" fill="none" xmlns="http://www.w3.org/2000/svg">
<path d="M16 16.875C15.525 7.542 1.475 7.542 1 16.875M11.5 3.875C11.5 5.53185 10.1569 6.875 8.5 6.875C6.84315 6.875 5.5 5.53185 5.5 3.875C5.5 2.21815 6.84315 0.875 8.5 0.875C10.1569 0.875 11.5 2.21815 11.5 3.875ZM7.692 13.94C8.086 13.73 8.283 13.625 8.5 13.625C8.717 13.625 8.914 13.73 9.308 13.94L9.442 14.012C9.836 14.222 10.033 14.327 10.142 14.5C10.25 14.673 10.25 14.883 10.25 15.304V15.446C10.25 15.866 10.25 16.076 10.142 16.25C10.033 16.423 9.836 16.528 9.442 16.738L9.308 16.81C8.914 17.02 8.717 17.125 8.5 17.125C8.283 17.125 8.086 17.02 7.692 16.81L7.558 16.738C7.164 16.528 6.967 16.423 6.858 16.25C6.75 16.077 6.75 15.867 6.75 15.446V15.304C6.75 14.884 6.75 14.674 6.858 14.5C6.967 14.327 7.164 14.222 7.558 14.012L7.692 13.94Z" stroke="white" stroke-width="1.5" stroke-linecap="round" stroke-linejoin="round"/>
</svg>
