<svg width="22" height="16" viewBox="0 0 22 16" fill="none" xmlns="http://www.w3.org/2000/svg">
<path d="M1.55038 9.406C1.27838 9.033 1.14238 8.846 1.04838 8.486C0.983872 8.16555 0.983872 7.83545 1.04838 7.515C1.14238 7.154 1.27838 6.967 1.55038 6.595C3.03938 4.55 6.30338 1 11.0004 1C15.6974 1 18.9614 4.55 20.4504 6.594C20.7224 6.967 20.8584 7.154 20.9524 7.514C21.0169 7.83445 21.0169 8.16455 20.9524 8.485C20.8584 8.846 20.7224 9.033 20.4504 9.405C18.9614 11.45 15.6974 15 11.0004 15C6.30338 15 3.03938 11.45 1.55038 9.406Z" stroke="white" stroke-width="1.5" stroke-linecap="round" stroke-linejoin="round"/>
<path d="M11.0005 10C11.5309 10 12.0396 9.78929 12.4147 9.41421C12.7898 9.03914 13.0005 8.53043 13.0005 8C13.0005 7.46957 12.7898 6.96086 12.4147 6.58579C12.0396 6.21071 11.5309 6 11.0005 6C10.4701 6 9.96135 6.21071 9.58628 6.58579C9.2112 6.96086 9.00049 7.46957 9.00049 8C9.00049 8.53043 9.2112 9.03914 9.58628 9.41421C9.96135 9.78929 10.4701 10 11.0005 10Z" stroke="white" stroke-width="1.5" stroke-linecap="round" stroke-linejoin="round"/>
</svg>
