<svg width="21" height="22" viewBox="0 0 21 22" fill="none" xmlns="http://www.w3.org/2000/svg">
<path d="M13.8333 6.722H10.5003M10.5003 6.722H8.83329C7.54529 6.722 6.50029 7.68 6.50029 8.862C6.50029 10.041 7.54529 11 8.83329 11H10.5003M10.5003 6.722V5.5M10.5003 6.722V11M10.5003 11H12.1673C13.4553 11 14.5003 11.958 14.5003 13.139C14.5003 14.32 13.4553 15.278 12.1673 15.278H10.5003M10.5003 11V15.278M10.5003 15.278H6.50029M10.5003 15.278V16.5M8.21329 2.64C8.79429 2.145 9.08529 1.897 9.38929 1.752C9.7362 1.58624 10.1158 1.50021 10.5003 1.50021C10.8848 1.50021 11.2644 1.58624 11.6113 1.752C11.9153 1.897 12.2063 2.145 12.7873 2.64C13.3863 3.15 13.9943 3.408 14.7943 3.471C15.5553 3.532 15.9363 3.563 16.2543 3.675C16.9883 3.935 17.5663 4.512 17.8253 5.247C17.9373 5.564 17.9683 5.945 18.0293 6.707C18.0923 7.507 18.3493 8.114 18.8593 8.713C19.3553 9.294 19.6033 9.585 19.7483 9.889C20.0843 10.592 20.0843 11.409 19.7483 12.111C19.6033 12.415 19.3553 12.706 18.8603 13.287C18.3651 13.8433 18.0723 14.5505 18.0293 15.294C17.9683 16.055 17.9373 16.436 17.8253 16.754C17.6971 17.1166 17.4894 17.4458 17.2173 17.7177C16.9453 17.9895 16.6159 18.197 16.2533 18.325C15.9363 18.437 15.5553 18.468 14.7933 18.529C13.9933 18.592 13.3863 18.849 12.7873 19.359C12.2063 19.855 11.9153 20.103 11.6113 20.248C11.2644 20.4138 10.8848 20.4998 10.5003 20.4998C10.1158 20.4998 9.7362 20.4138 9.38929 20.248C9.08529 20.103 8.79429 19.855 8.21329 19.36C7.65699 18.8648 6.94979 18.572 6.20629 18.529C5.44529 18.468 5.06429 18.437 4.74629 18.325C4.38373 18.1968 4.05446 17.9891 3.78262 17.7171C3.51078 17.445 3.30326 17.1156 3.17529 16.753C3.06329 16.436 3.03229 16.055 2.97129 15.293C2.92839 14.55 2.63594 13.8431 2.14129 13.287C1.64529 12.706 1.39729 12.415 1.25129 12.111C1.08569 11.764 0.999827 11.3844 1 10.9999C1.00017 10.6154 1.08638 10.2358 1.25229 9.889C1.39729 9.585 1.64529 9.294 2.14029 8.713C2.66029 8.102 2.90929 7.49 2.97129 6.706C3.03229 5.945 3.06329 5.564 3.17529 5.246C3.30349 4.88344 3.51122 4.55417 3.78323 4.28233C4.05524 4.01049 4.38465 3.80298 4.74729 3.675C5.06429 3.563 5.44529 3.532 6.20729 3.471C6.95034 3.4281 7.65716 3.13465 8.21329 2.64Z" stroke="white" stroke-width="1.5" stroke-linecap="round" stroke-linejoin="round"/>
</svg>
