<svg width="22" height="22" viewBox="0 0 22 22" fill="none" xmlns="http://www.w3.org/2000/svg">
<path d="M8.67344 5.52067C8.86598 5.71704 8.97383 5.98109 8.97383 6.2561C8.97383 6.53112 8.86598 6.79517 8.67344 6.99154L6.99291 8.67207C6.79654 8.86461 6.53249 8.97246 6.25747 8.97246C5.98246 8.97246 5.71841 8.86461 5.52204 8.67207L2.69565 5.84679C2.14657 5.29881 1.22366 5.4774 1.09166 6.24168C0.919182 7.24196 0.990838 8.2691 1.30054 9.23573C1.61023 10.2024 2.14881 11.0799 2.87046 11.7937C3.59211 12.5075 4.47548 13.0365 5.44545 13.3356C6.41541 13.6347 7.44327 13.6952 8.4416 13.5118C9.35119 13.3454 10.3351 13.4874 10.9885 14.1396L17.1626 20.3148C17.368 20.5287 17.6141 20.6994 17.8863 20.817C18.1586 20.9346 18.4515 20.9967 18.7481 20.9996C19.0446 21.0026 19.3388 20.9464 19.6133 20.8343C19.8879 20.7221 20.1373 20.5564 20.347 20.3467C20.5567 20.137 20.7224 19.8876 20.8345 19.613C20.9466 19.3385 21.0029 19.0444 20.9999 18.7478C20.9969 18.4513 20.9348 18.1583 20.8172 17.8861C20.6997 17.6138 20.5289 17.3678 20.3151 17.1623L14.1399 10.9882C13.4876 10.3348 13.3456 9.34982 13.512 8.44134C13.6949 7.44309 13.6341 6.41546 13.3348 5.44574C13.0355 4.47602 12.5065 3.59289 11.7928 2.87136C11.0791 2.14984 10.2018 1.61126 9.23543 1.30137C8.26904 0.991484 7.24213 0.919454 6.24195 1.0914C5.47767 1.22451 5.29908 2.1463 5.84705 2.69539L8.67344 5.52067Z" stroke="white" stroke-width="2" stroke-linecap="round" stroke-linejoin="round"/>
</svg>
