<svg width="16" height="20" viewBox="0 0 16 20" fill="none" xmlns="http://www.w3.org/2000/svg">
<path d="M5.478 1H3.25C2.65326 1 2.08097 1.23705 1.65901 1.65901C1.23705 2.08097 1 2.65326 1 3.25V16.75C1 17.3467 1.23705 17.919 1.65901 18.341C2.08097 18.7629 2.65326 19 3.25 19H12.25C12.8467 19 13.419 18.7629 13.841 18.341C14.2629 17.919 14.5 17.3467 14.5 16.75V10M5.478 1C6.721 1 7.75 2.007 7.75 3.25V5.5C7.75 6.09674 7.98705 6.66903 8.40901 7.09099C8.83097 7.51295 9.40326 7.75 10 7.75H12.25C12.8467 7.75 13.419 7.98705 13.841 8.40901C14.2629 8.83097 14.5 9.40326 14.5 10M5.478 1C9.168 1 14.5 6.36 14.5 10M5 14.5H11M5 11.5H9" stroke="white" stroke-width="1.5" stroke-linecap="round" stroke-linejoin="round"/>
</svg>
