<svg width="22" height="20" viewBox="0 0 22 20" fill="none" xmlns="http://www.w3.org/2000/svg">
<path d="M16.3584 4.643L20.0014 1M16.3584 4.643C18.2364 5.843 19.6204 7.453 20.4514 8.594C20.7234 8.967 20.8594 9.154 20.9534 9.514C21.0179 9.83445 21.0179 10.1645 20.9534 10.485C20.8594 10.846 20.7234 11.033 20.4514 11.405C18.9624 13.45 15.6984 17 11.0014 17C8.92638 17 7.13138 16.307 5.64438 15.357M16.3584 4.643L12.4154 8.586M5.64438 15.357L2.00138 19M5.64438 15.357L9.58739 11.414M12.4154 8.586C12.7797 8.9632 12.9813 9.46841 12.9767 9.9928C12.9722 10.5172 12.7618 11.0188 12.391 11.3896C12.0202 11.7605 11.5186 11.9708 10.9942 11.9753C10.4698 11.9799 9.96459 11.7783 9.58739 11.414M12.4154 8.586L9.58739 11.414M2.86138 13C2.39359 12.4948 1.95583 11.9625 1.55038 11.406C1.27838 11.033 1.14238 10.846 1.04838 10.486C0.983872 10.1655 0.983872 9.83545 1.04838 9.515C1.14238 9.154 1.27838 8.967 1.55038 8.595C3.04038 6.55 6.30438 3 11.0014 3C11.5914 3 12.1594 3.056 12.7044 3.158" stroke="white" stroke-width="1.5" stroke-linecap="round" stroke-linejoin="round"/>
</svg>
