<svg width="20" height="20" viewBox="0 0 20 20" fill="none" xmlns="http://www.w3.org/2000/svg">
<path d="M12.9954 14.3541L13.3494 14.0001M7.9954 15.3541L8.3494 15.0001M5.9954 6.35405L6.3494 6.00005M4.9954 11.3541L5.3494 11.0001M9.9954 10.3541L10.3494 10.0001M9.9984 19.0001C12.3263 19 14.5638 18.0981 16.2411 16.4838C17.9184 14.8695 18.9052 12.6683 18.9944 10.3421C19.0004 10.1891 18.8344 10.0921 18.6964 10.1611C16.2204 11.4081 14.6904 10.0841 14.9394 8.30705C14.9438 8.27269 14.9404 8.23776 14.9294 8.2049C14.9184 8.17204 14.9001 8.14211 14.8758 8.11737C14.8515 8.09262 14.822 8.07371 14.7893 8.06205C14.7567 8.05039 14.7218 8.04629 14.6874 8.05006C12.5164 8.35306 11.6014 7.03605 11.9434 5.24605C11.9485 5.21557 11.9472 5.18436 11.9397 5.15438C11.9322 5.12439 11.9186 5.09628 11.8997 5.07179C11.8809 5.04731 11.8572 5.02697 11.8301 5.01204C11.803 4.99712 11.7732 4.98793 11.7424 4.98505C9.6994 4.80305 9.5304 2.44505 9.8814 1.29505C9.9244 1.15305 9.8224 0.995055 9.6744 1.00005C7.31709 1.08615 5.08773 2.09399 3.46581 3.80681C1.8439 5.51962 0.959007 7.80058 1.00146 10.1591C1.04391 12.5176 2.01032 14.7652 3.69282 16.4186C5.37533 18.0719 7.63952 18.9988 9.9984 19.0001Z" stroke="white" stroke-width="1.5" stroke-linecap="round" stroke-linejoin="round"/>
</svg>
