<svg width="18" height="18" viewBox="0 0 18 18" fill="none" xmlns="http://www.w3.org/2000/svg">
<path d="M6.38892 17V12.1112C6.38892 11.6397 6.59963 11.1875 6.9747 10.8541C7.34978 10.5207 7.85848 10.3334 8.38892 10.3334H9.38892C9.91935 10.3334 10.4281 10.5207 10.8031 10.8541C11.1782 11.1875 11.3889 11.6397 11.3889 12.1112V17M3.02192 17C1.84392 17 0.888916 16.1289 0.888916 15.0534V7.22948C0.888916 6.63838 1.18392 6.07839 1.68892 5.70951L7.55592 1.42691C7.93077 1.15098 8.40222 1 8.88892 1C9.37562 1 9.84706 1.15098 10.2219 1.42691L16.0879 5.70951C16.5939 6.07839 16.8889 6.63838 16.8889 7.22948V15.0534C16.8889 16.1289 15.9339 17 14.7559 17H3.02192Z" stroke="white" stroke-width="1.5" stroke-linecap="round" stroke-linejoin="round"/>
</svg>
