<svg width="133" height="27" viewBox="0 0 133 27" fill="none" xmlns="http://www.w3.org/2000/svg">
<path d="M0.144141 10V1.6H8.02814V10H5.67614V2.956L6.20414 3.484H1.96814L2.48414 2.956V10H0.144141ZM13.0398 10.108C12.2718 10.108 11.5998 9.964 11.0238 9.676C10.4558 9.38 10.0118 8.98 9.69183 8.476C9.37983 7.964 9.22383 7.384 9.22383 6.736C9.22383 6.088 9.37583 5.512 9.67983 5.008C9.99183 4.496 10.4198 4.1 10.9638 3.82C11.5078 3.532 12.1198 3.388 12.7998 3.388C13.4398 3.388 14.0238 3.52 14.5518 3.784C15.0798 4.04 15.4998 4.42 15.8118 4.924C16.1238 5.428 16.2798 6.04 16.2798 6.76C16.2798 6.84 16.2758 6.932 16.2678 7.036C16.2598 7.14 16.2518 7.236 16.2438 7.324H11.0958V6.124H15.0318L14.1678 6.46C14.1758 6.164 14.1198 5.908 13.9998 5.692C13.8878 5.476 13.7278 5.308 13.5198 5.188C13.3198 5.068 13.0838 5.008 12.8118 5.008C12.5398 5.008 12.2998 5.068 12.0918 5.188C11.8918 5.308 11.7358 5.48 11.6238 5.704C11.5118 5.92 11.4558 6.176 11.4558 6.472V6.82C11.4558 7.14 11.5198 7.416 11.6478 7.648C11.7838 7.88 11.9758 8.06 12.2238 8.188C12.4718 8.308 12.7678 8.368 13.1118 8.368C13.4318 8.368 13.7038 8.324 13.9278 8.236C14.1598 8.14 14.3878 7.996 14.6118 7.804L15.8118 9.052C15.4998 9.396 15.1158 9.66 14.6598 9.844C14.2038 10.02 13.6638 10.108 13.0398 10.108ZM21.5768 10.108C21.0248 10.108 20.5528 9.988 20.1608 9.748C19.7688 9.5 19.4688 9.132 19.2608 8.644C19.0608 8.148 18.9608 7.516 18.9608 6.748C18.9608 5.972 19.0568 5.34 19.2488 4.852C19.4408 4.356 19.7288 3.988 20.1128 3.748C20.5048 3.508 20.9928 3.388 21.5768 3.388C22.1688 3.388 22.7048 3.528 23.1848 3.808C23.6728 4.08 24.0568 4.468 24.3368 4.972C24.6248 5.468 24.7688 6.06 24.7688 6.748C24.7688 7.436 24.6248 8.032 24.3368 8.536C24.0568 9.04 23.6728 9.428 23.1848 9.7C22.7048 9.972 22.1688 10.108 21.5768 10.108ZM17.4848 12.328V3.496H19.6568V4.6L19.6448 6.748L19.7648 8.908V12.328H17.4848ZM21.0968 8.296C21.3528 8.296 21.5808 8.236 21.7808 8.116C21.9888 7.996 22.1528 7.82 22.2728 7.588C22.4008 7.356 22.4648 7.076 22.4648 6.748C22.4648 6.42 22.4008 6.14 22.2728 5.908C22.1528 5.676 21.9888 5.5 21.7808 5.38C21.5808 5.26 21.3528 5.2 21.0968 5.2C20.8408 5.2 20.6088 5.26 20.4008 5.38C20.2008 5.5 20.0368 5.676 19.9088 5.908C19.7888 6.14 19.7288 6.42 19.7288 6.748C19.7288 7.076 19.7888 7.356 19.9088 7.588C20.0368 7.82 20.2008 7.996 20.4008 8.116C20.6088 8.236 20.8408 8.296 21.0968 8.296ZM29.1277 10.108C28.4077 10.108 27.7637 9.964 27.1957 9.676C26.6357 9.388 26.1957 8.992 25.8757 8.488C25.5557 7.976 25.3957 7.392 25.3957 6.736C25.3957 6.08 25.5557 5.5 25.8757 4.996C26.1957 4.492 26.6357 4.1 27.1957 3.82C27.7637 3.532 28.4077 3.388 29.1277 3.388C29.8637 3.388 30.4997 3.544 31.0357 3.856C31.5717 4.168 31.9517 4.608 32.1757 5.176L30.4117 6.076C30.2597 5.772 30.0717 5.552 29.8477 5.416C29.6237 5.272 29.3797 5.2 29.1157 5.2C28.8517 5.2 28.6117 5.26 28.3957 5.38C28.1797 5.5 28.0077 5.676 27.8797 5.908C27.7597 6.132 27.6997 6.408 27.6997 6.736C27.6997 7.072 27.7597 7.356 27.8797 7.588C28.0077 7.82 28.1797 7.996 28.3957 8.116C28.6117 8.236 28.8517 8.296 29.1157 8.296C29.3797 8.296 29.6237 8.228 29.8477 8.092C30.0717 7.948 30.2597 7.724 30.4117 7.42L32.1757 8.32C31.9517 8.888 31.5717 9.328 31.0357 9.64C30.4997 9.952 29.8637 10.108 29.1277 10.108ZM36.263 10.108C35.551 10.108 34.919 9.964 34.367 9.676C33.815 9.388 33.379 8.992 33.059 8.488C32.747 7.976 32.591 7.392 32.591 6.736C32.591 6.08 32.747 5.5 33.059 4.996C33.379 4.492 33.815 4.1 34.367 3.82C34.919 3.532 35.551 3.388 36.263 3.388C36.975 3.388 37.607 3.532 38.159 3.82C38.719 4.1 39.155 4.492 39.467 4.996C39.779 5.5 39.935 6.08 39.935 6.736C39.935 7.392 39.779 7.976 39.467 8.488C39.155 8.992 38.719 9.388 38.159 9.676C37.607 9.964 36.975 10.108 36.263 10.108ZM36.263 8.296C36.527 8.296 36.759 8.236 36.959 8.116C37.167 7.996 37.331 7.82 37.451 7.588C37.571 7.348 37.631 7.064 37.631 6.736C37.631 6.408 37.571 6.132 37.451 5.908C37.331 5.676 37.167 5.5 36.959 5.38C36.759 5.26 36.527 5.2 36.263 5.2C36.007 5.2 35.775 5.26 35.567 5.38C35.367 5.5 35.203 5.676 35.075 5.908C34.955 6.132 34.895 6.408 34.895 6.736C34.895 7.064 34.955 7.348 35.075 7.588C35.203 7.82 35.367 7.996 35.567 8.116C35.775 8.236 36.007 8.296 36.263 8.296ZM41.0043 10V3.496H43.2723V5.908H45.6123V3.496H47.8923V10H45.6123V7.72H43.2723V10H41.0043ZM53.2821 10V8.788L53.1261 8.488V6.256C53.1261 5.896 53.0141 5.62 52.7901 5.428C52.5741 5.228 52.2261 5.128 51.7461 5.128C51.4341 5.128 51.1181 5.18 50.7981 5.284C50.4781 5.38 50.2061 5.516 49.9821 5.692L49.2141 4.144C49.5821 3.904 50.0221 3.72 50.5341 3.592C51.0541 3.456 51.5701 3.388 52.0821 3.388C53.1381 3.388 53.9541 3.632 54.5301 4.12C55.1141 4.6 55.4061 5.356 55.4061 6.388V10H53.2821ZM51.3621 10.108C50.8421 10.108 50.4021 10.02 50.0421 9.844C49.6821 9.668 49.4061 9.428 49.2141 9.124C49.0301 8.82 48.9381 8.48 48.9381 8.104C48.9381 7.704 49.0381 7.36 49.2381 7.072C49.4461 6.776 49.7621 6.552 50.1861 6.4C50.6101 6.24 51.1581 6.16 51.8301 6.16H53.3661V7.348H52.1421C51.7741 7.348 51.5141 7.408 51.3621 7.528C51.2181 7.648 51.1461 7.808 51.1461 8.008C51.1461 8.208 51.2221 8.368 51.3741 8.488C51.5261 8.608 51.7341 8.668 51.9981 8.668C52.2461 8.668 52.4701 8.608 52.6701 8.488C52.8781 8.36 53.0301 8.168 53.1261 7.912L53.4381 8.752C53.3181 9.2 53.0821 9.54 52.7301 9.772C52.3861 9.996 51.9301 10.108 51.3621 10.108ZM56.1178 10L56.2138 8.14C56.2698 8.148 56.3218 8.156 56.3698 8.164C56.4178 8.164 56.4618 8.164 56.5018 8.164C56.7018 8.164 56.8578 8.116 56.9698 8.02C57.0898 7.916 57.1778 7.776 57.2338 7.6C57.2978 7.424 57.3418 7.22 57.3658 6.988C57.3978 6.748 57.4178 6.488 57.4258 6.208L57.5218 3.496H63.4018V10H61.1218V4.792L61.6258 5.308H59.0218L59.5018 4.768L59.4298 6.304C59.4058 6.888 59.3538 7.42 59.2738 7.9C59.2018 8.372 59.0858 8.776 58.9258 9.112C58.7658 9.448 58.5458 9.708 58.2658 9.892C57.9938 10.068 57.6458 10.156 57.2218 10.156C57.0698 10.156 56.8978 10.14 56.7058 10.108C56.5218 10.084 56.3258 10.048 56.1178 10ZM68.75 5.512C69.614 5.52 70.274 5.712 70.73 6.088C71.186 6.464 71.414 7 71.414 7.696C71.414 8.416 71.15 8.984 70.622 9.4C70.102 9.808 69.382 10.008 68.462 10H64.934V3.496H67.202V5.512H68.75ZM68.234 8.44C68.506 8.44 68.718 8.376 68.87 8.248C69.022 8.12 69.098 7.924 69.098 7.66C69.098 7.388 69.022 7.196 68.87 7.084C68.726 6.972 68.514 6.912 68.234 6.904H67.202V8.428L68.234 8.44ZM72.3871 10V3.496H74.6551V5.908H76.9951V3.496H79.2751V10H76.9951V7.72H74.6551V10H72.3871ZM87.6649 10V3.496H89.9329V10H87.6649ZM84.5329 5.512C85.3969 5.52 86.0409 5.712 86.4649 6.088C86.8969 6.464 87.1129 7 87.1129 7.696C87.1129 8.416 86.8649 8.984 86.3689 9.4C85.8729 9.808 85.1649 10.008 84.2449 10H80.8129V3.496H83.0809V5.512H84.5329ZM84.0169 8.44C84.2889 8.44 84.5009 8.376 84.6529 8.248C84.8049 8.12 84.8809 7.924 84.8809 7.66C84.8809 7.388 84.8049 7.196 84.6529 7.084C84.5089 6.972 84.2969 6.912 84.0169 6.904H83.0809V8.428L84.0169 8.44ZM91.477 10V3.496H93.745V6.904L96.469 3.496H98.569V10H96.289V6.58L93.589 10H91.477ZM94.861 2.872C94.093 2.872 93.525 2.712 93.157 2.392C92.797 2.064 92.613 1.564 92.605 0.891999H94.081C94.089 1.156 94.149 1.364 94.261 1.516C94.381 1.66 94.577 1.732 94.849 1.732C95.121 1.732 95.321 1.66 95.449 1.516C95.577 1.364 95.641 1.156 95.641 0.891999H97.141C97.141 1.564 96.953 2.064 96.577 2.392C96.209 2.712 95.637 2.872 94.861 2.872ZM106.858 10.108C106.138 10.108 105.494 9.964 104.926 9.676C104.366 9.388 103.926 8.992 103.606 8.488C103.286 7.976 103.126 7.392 103.126 6.736C103.126 6.08 103.286 5.5 103.606 4.996C103.926 4.492 104.366 4.1 104.926 3.82C105.494 3.532 106.138 3.388 106.858 3.388C107.594 3.388 108.23 3.544 108.766 3.856C109.302 4.168 109.682 4.608 109.906 5.176L108.142 6.076C107.99 5.772 107.802 5.552 107.578 5.416C107.354 5.272 107.11 5.2 106.846 5.2C106.582 5.2 106.342 5.26 106.126 5.38C105.91 5.5 105.738 5.676 105.61 5.908C105.49 6.132 105.43 6.408 105.43 6.736C105.43 7.072 105.49 7.356 105.61 7.588C105.738 7.82 105.91 7.996 106.126 8.116C106.342 8.236 106.582 8.296 106.846 8.296C107.11 8.296 107.354 8.228 107.578 8.092C107.802 7.948 107.99 7.724 108.142 7.42L109.906 8.32C109.682 8.888 109.302 9.328 108.766 9.64C108.23 9.952 107.594 10.108 106.858 10.108ZM114.712 10V8.788L114.556 8.488V6.256C114.556 5.896 114.444 5.62 114.22 5.428C114.004 5.228 113.656 5.128 113.176 5.128C112.864 5.128 112.548 5.18 112.228 5.284C111.908 5.38 111.636 5.516 111.412 5.692L110.644 4.144C111.012 3.904 111.452 3.72 111.964 3.592C112.484 3.456 113 3.388 113.512 3.388C114.568 3.388 115.384 3.632 115.96 4.12C116.544 4.6 116.836 5.356 116.836 6.388V10H114.712ZM112.792 10.108C112.272 10.108 111.832 10.02 111.472 9.844C111.112 9.668 110.836 9.428 110.644 9.124C110.46 8.82 110.368 8.48 110.368 8.104C110.368 7.704 110.468 7.36 110.668 7.072C110.876 6.776 111.192 6.552 111.616 6.4C112.04 6.24 112.588 6.16 113.26 6.16H114.796V7.348H113.572C113.204 7.348 112.944 7.408 112.792 7.528C112.648 7.648 112.576 7.808 112.576 8.008C112.576 8.208 112.652 8.368 112.804 8.488C112.956 8.608 113.164 8.668 113.428 8.668C113.676 8.668 113.9 8.608 114.1 8.488C114.308 8.36 114.46 8.168 114.556 7.912L114.868 8.752C114.748 9.2 114.512 9.54 114.16 9.772C113.816 9.996 113.36 10.108 112.792 10.108ZM118.207 10V3.496H120.475V6.904L123.199 3.496H125.299V10H123.019V6.58L120.319 10H118.207ZM121.591 2.872C120.823 2.872 120.255 2.712 119.887 2.392C119.527 2.064 119.343 1.564 119.335 0.891999H120.811C120.819 1.156 120.879 1.364 120.991 1.516C121.111 1.66 121.307 1.732 121.579 1.732C121.851 1.732 122.051 1.66 122.179 1.516C122.307 1.364 122.371 1.156 122.371 0.891999H123.871C123.871 1.564 123.683 2.064 123.307 2.392C122.939 2.712 122.367 2.872 121.591 2.872ZM128.284 10V4.804L128.776 5.308H126.184V3.496H132.64V5.308H130.048L130.552 4.804V10H128.284ZM21.5137 22.024C21.1217 22.168 20.7497 22.28 20.3977 22.36C20.0537 22.432 19.7217 22.468 19.4017 22.468C18.2257 22.468 17.3257 22.188 16.7017 21.628C16.0857 21.068 15.7777 20.252 15.7777 19.18V16.6H18.1177V18.916C18.1177 19.46 18.2497 19.868 18.5137 20.14C18.7857 20.404 19.1817 20.536 19.7017 20.536C20.0377 20.536 20.3537 20.504 20.6497 20.44C20.9537 20.368 21.2217 20.26 21.4537 20.116L21.5137 22.024ZM21.1897 25V16.6H23.5297V25H21.1897ZM28.5437 25.108C27.7757 25.108 27.1037 24.964 26.5277 24.676C25.9597 24.38 25.5157 23.98 25.1957 23.476C24.8837 22.964 24.7277 22.384 24.7277 21.736C24.7277 21.088 24.8797 20.512 25.1837 20.008C25.4957 19.496 25.9237 19.1 26.4677 18.82C27.0117 18.532 27.6237 18.388 28.3037 18.388C28.9437 18.388 29.5277 18.52 30.0557 18.784C30.5837 19.04 31.0037 19.42 31.3157 19.924C31.6277 20.428 31.7837 21.04 31.7837 21.76C31.7837 21.84 31.7797 21.932 31.7717 22.036C31.7637 22.14 31.7557 22.236 31.7477 22.324H26.5997V21.124H30.5357L29.6717 21.46C29.6797 21.164 29.6237 20.908 29.5037 20.692C29.3917 20.476 29.2317 20.308 29.0237 20.188C28.8237 20.068 28.5877 20.008 28.3157 20.008C28.0437 20.008 27.8037 20.068 27.5957 20.188C27.3957 20.308 27.2397 20.48 27.1277 20.704C27.0157 20.92 26.9597 21.176 26.9597 21.472V21.82C26.9597 22.14 27.0237 22.416 27.1517 22.648C27.2877 22.88 27.4797 23.06 27.7277 23.188C27.9757 23.308 28.2717 23.368 28.6157 23.368C28.9357 23.368 29.2077 23.324 29.4317 23.236C29.6637 23.14 29.8917 22.996 30.1157 22.804L31.3157 24.052C31.0037 24.396 30.6197 24.66 30.1637 24.844C29.7077 25.02 29.1677 25.108 28.5437 25.108ZM34.2298 25V19.804L34.7218 20.308H32.1298V18.496H38.5858V20.308H35.9938L36.4978 19.804V25H34.2298ZM39.4692 25V18.496H41.7372V21.904L44.4612 18.496H46.5612V25H44.2812V21.58L41.5812 25H39.4692ZM48.0942 25V18.496H50.3622V20.908H52.7022V18.496H54.9822V25H52.7022V22.72H50.3622V25H48.0942ZM60.372 25V23.788L60.216 23.488V21.256C60.216 20.896 60.104 20.62 59.88 20.428C59.664 20.228 59.316 20.128 58.836 20.128C58.524 20.128 58.208 20.18 57.888 20.284C57.568 20.38 57.296 20.516 57.072 20.692L56.304 19.144C56.672 18.904 57.112 18.72 57.624 18.592C58.144 18.456 58.66 18.388 59.172 18.388C60.228 18.388 61.044 18.632 61.62 19.12C62.204 19.6 62.496 20.356 62.496 21.388V25H60.372ZM58.452 25.108C57.932 25.108 57.492 25.02 57.132 24.844C56.772 24.668 56.496 24.428 56.304 24.124C56.12 23.82 56.028 23.48 56.028 23.104C56.028 22.704 56.128 22.36 56.328 22.072C56.536 21.776 56.852 21.552 57.276 21.4C57.7 21.24 58.248 21.16 58.92 21.16H60.456V22.348H59.232C58.864 22.348 58.604 22.408 58.452 22.528C58.308 22.648 58.236 22.808 58.236 23.008C58.236 23.208 58.312 23.368 58.464 23.488C58.616 23.608 58.824 23.668 59.088 23.668C59.336 23.668 59.56 23.608 59.76 23.488C59.968 23.36 60.12 23.168 60.216 22.912L60.528 23.752C60.408 24.2 60.172 24.54 59.82 24.772C59.476 24.996 59.02 25.108 58.452 25.108ZM73.0358 23.968V18.484H70.6238L70.5878 19.396C70.5718 19.884 70.5398 20.34 70.4918 20.764C70.4518 21.188 70.3918 21.576 70.3118 21.928C70.2398 22.28 70.1398 22.584 70.0118 22.84C69.8918 23.088 69.7438 23.28 69.5678 23.416L67.0358 23.116C67.3158 23.124 67.5438 23.032 67.7198 22.84C67.9038 22.64 68.0478 22.364 68.1518 22.012C68.2638 21.66 68.3438 21.244 68.3918 20.764C68.4478 20.284 68.4878 19.76 68.5118 19.192L68.6078 16.6H75.3758V23.968H73.0358ZM66.7838 26.692V23.116H76.5158V26.692H74.3438V25H68.9678V26.692H66.7838ZM81.372 25V23.788L81.216 23.488V21.256C81.216 20.896 81.104 20.62 80.88 20.428C80.664 20.228 80.316 20.128 79.836 20.128C79.524 20.128 79.208 20.18 78.888 20.284C78.568 20.38 78.296 20.516 78.072 20.692L77.304 19.144C77.672 18.904 78.112 18.72 78.624 18.592C79.144 18.456 79.66 18.388 80.172 18.388C81.228 18.388 82.044 18.632 82.62 19.12C83.204 19.6 83.496 20.356 83.496 21.388V25H81.372ZM79.452 25.108C78.932 25.108 78.492 25.02 78.132 24.844C77.772 24.668 77.496 24.428 77.304 24.124C77.12 23.82 77.028 23.48 77.028 23.104C77.028 22.704 77.128 22.36 77.328 22.072C77.536 21.776 77.852 21.552 78.276 21.4C78.7 21.24 79.248 21.16 79.92 21.16H81.456V22.348H80.232C79.864 22.348 79.604 22.408 79.452 22.528C79.308 22.648 79.236 22.808 79.236 23.008C79.236 23.208 79.312 23.368 79.464 23.488C79.616 23.608 79.824 23.668 80.088 23.668C80.336 23.668 80.56 23.608 80.76 23.488C80.968 23.36 81.12 23.168 81.216 22.912L81.528 23.752C81.408 24.2 81.172 24.54 80.82 24.772C80.476 24.996 80.02 25.108 79.452 25.108ZM84.8676 25V18.496H87.1356V20.908H89.4756V18.496H91.7556V25H89.4756V22.72H87.1356V25H84.8676ZM93.2934 25V18.496H95.5614V21.904L98.2854 18.496H100.385V25H98.1054V21.58L95.4054 25H93.2934ZM101.258 25L101.354 23.14C101.41 23.148 101.462 23.156 101.51 23.164C101.558 23.164 101.602 23.164 101.642 23.164C101.842 23.164 101.998 23.116 102.11 23.02C102.23 22.916 102.318 22.776 102.374 22.6C102.438 22.424 102.482 22.22 102.506 21.988C102.538 21.748 102.558 21.488 102.566 21.208L102.662 18.496H108.542V25H106.262V19.792L106.766 20.308H104.162L104.642 19.768L104.57 21.304C104.546 21.888 104.494 22.42 104.414 22.9C104.342 23.372 104.226 23.776 104.066 24.112C103.906 24.448 103.686 24.708 103.406 24.892C103.134 25.068 102.786 25.156 102.362 25.156C102.21 25.156 102.038 25.14 101.846 25.108C101.662 25.084 101.466 25.048 101.258 25ZM113.927 25V23.788L113.771 23.488V21.256C113.771 20.896 113.659 20.62 113.435 20.428C113.219 20.228 112.871 20.128 112.391 20.128C112.079 20.128 111.763 20.18 111.443 20.284C111.123 20.38 110.851 20.516 110.627 20.692L109.859 19.144C110.227 18.904 110.667 18.72 111.179 18.592C111.699 18.456 112.215 18.388 112.727 18.388C113.783 18.388 114.599 18.632 115.175 19.12C115.759 19.6 116.051 20.356 116.051 21.388V25H113.927ZM112.007 25.108C111.487 25.108 111.047 25.02 110.687 24.844C110.327 24.668 110.051 24.428 109.859 24.124C109.675 23.82 109.583 23.48 109.583 23.104C109.583 22.704 109.683 22.36 109.883 22.072C110.091 21.776 110.407 21.552 110.831 21.4C111.255 21.24 111.803 21.16 112.475 21.16H114.011V22.348H112.787C112.419 22.348 112.159 22.408 112.007 22.528C111.863 22.648 111.791 22.808 111.791 23.008C111.791 23.208 111.867 23.368 112.019 23.488C112.171 23.608 112.379 23.668 112.643 23.668C112.891 23.668 113.115 23.608 113.315 23.488C113.523 23.36 113.675 23.168 113.771 22.912L114.083 23.752C113.963 24.2 113.727 24.54 113.375 24.772C113.031 24.996 112.575 25.108 112.007 25.108Z" fill="white"/>
</svg>
