<svg width="21" height="18" viewBox="0 0 21 18" fill="none" xmlns="http://www.w3.org/2000/svg">
<path d="M10.5001 6.38231V16.5823M10.5001 6.38231C10.5001 4.67831 10.6071 2.79831 8.86207 1.90931C8.22007 1.58231 7.38007 1.58231 5.70007 1.58231H3.10007C1.86407 1.58231 1.50007 2.01931 1.50007 3.18231V11.9823C1.50007 12.5503 1.46407 13.1773 2.04607 13.4733C2.26007 13.5823 2.53907 13.5823 3.09807 13.5823H5.93107C8.30807 13.5823 9.19107 14.6183 10.5001 16.5823M10.5001 6.38231C10.5001 4.67831 10.3921 2.79831 12.1381 1.90931C12.7791 1.58231 13.6201 1.58231 15.3001 1.58231H17.9001C19.1351 1.58231 19.5001 2.01831 19.5001 3.18231V11.9823C19.5001 12.5493 19.5351 13.1773 18.9541 13.4733C18.7411 13.5823 18.4611 13.5823 17.9021 13.5823H15.0691C12.6921 13.5823 11.8091 14.6183 10.5001 16.5823" stroke="white" stroke-width="1.5" stroke-linecap="round" stroke-linejoin="round"/>
</svg>
