<svg width="20" height="20" viewBox="0 0 20 20" fill="none" xmlns="http://www.w3.org/2000/svg">
<path d="M7 13C7.85 13.63 8.885 14 10 14C11.115 14 12.15 13.63 13 13M7.5 8.5V8M12.5 8.5V8M1 16.562V10.044C1 5.05 5.03 1 10 1C14.97 1 19 5.05 19 10.044V16.561C19 17.723 18.033 19.08 17 18.561C16.165 18.141 14.777 18.041 14 18.561C13.126 19.146 11.874 19.146 11 18.561C10.115 17.968 9.351 17.991 8.5 18.561C7.626 19.146 6.374 19.146 5.5 18.561C4.723 18.041 3.835 18.141 3 18.561C1.967 19.08 1 17.724 1 16.562Z" stroke="white" stroke-width="1.5" stroke-linecap="round" stroke-linejoin="round"/>
</svg>
