<svg width="23" height="21" viewBox="0 0 23 21" fill="none" xmlns="http://www.w3.org/2000/svg">
<path d="M21.5 7.08178V12.0818M4.5 10.0818V15.2068C4.5 18.1248 9.194 19.5818 11.5 19.5818C13.806 19.5818 18.5 18.1248 18.5 15.2068V10.0818M13.717 2.08178C13.0242 1.75292 12.2669 1.58231 11.5 1.58231C10.7331 1.58231 9.97581 1.75292 9.283 2.08178L2.592 5.21878C1.136 5.90078 1.136 8.26278 2.592 8.94478L9.282 12.0818C9.97494 12.4108 10.7324 12.5815 11.4995 12.5815C12.2666 12.5815 13.0241 12.4108 13.717 12.0818L20.408 8.94478C21.864 8.26278 21.864 5.90078 20.408 5.21878L13.717 2.08178Z" stroke="white" stroke-width="1.5" stroke-linecap="round" stroke-linejoin="round"/>
</svg>
