<svg width="32" height="33" viewBox="0 0 32 33" fill="none" xmlns="http://www.w3.org/2000/svg">
<path d="M16 7.53467H13C12.2044 7.53467 11.4413 7.85074 10.8787 8.41335C10.3161 8.97596 10 9.73902 10 10.5347C10 11.3303 10.3161 12.0934 10.8787 12.656C11.4413 13.2186 12.2044 13.5347 13 13.5347M16 7.53467V13.5347M16 7.53467H19C19.7956 7.53467 20.5587 7.85074 21.1213 8.41335C21.6839 8.97596 22 9.73902 22 10.5347C22 11.3303 21.6839 12.0934 21.1213 12.656C20.5587 13.2186 19.7956 13.5347 19 13.5347M16 13.5347H13M16 13.5347H19M16 13.5347V19.5347M13 13.5347C12.2044 13.5347 11.4413 13.8507 10.8787 14.4133C10.3161 14.976 10 15.739 10 16.5347C10 17.3303 10.3161 18.0934 10.8787 18.656C11.4413 19.2186 12.2044 19.5347 13 19.5347M19 13.5347C18.2044 13.5347 17.4413 13.8507 16.8787 14.4133C16.3161 14.976 16 15.739 16 16.5347C16 17.3303 16.3161 18.0934 16.8787 18.656C17.4413 19.2186 18.2044 19.5347 19 19.5347C19.7956 19.5347 20.5587 19.2186 21.1213 18.656C21.6839 18.0934 22 17.3303 22 16.5347C22 15.739 21.6839 14.976 21.1213 14.4133C20.5587 13.8507 19.7956 13.5347 19 13.5347ZM13 19.5347C12.2044 19.5347 11.4413 19.8507 10.8787 20.4133C10.3161 20.976 10 21.739 10 22.5347C10 23.3303 10.3161 24.0934 10.8787 24.656C11.4413 25.2186 12.2044 25.5347 13 25.5347C13.7956 25.5347 14.5587 25.2186 15.1213 24.656C15.6839 24.0934 16 23.3303 16 22.5347V19.5347M13 19.5347H16M1 16.5347C1 8.2504 7.71573 1.53467 16 1.53467C24.2843 1.53467 31 8.2504 31 16.5347C31 24.8189 24.2843 31.5347 16 31.5347C7.71573 31.5347 1 24.8189 1 16.5347Z" stroke="white" stroke-width="1.5" stroke-linecap="round" stroke-linejoin="round"/>
</svg>
