<svg width="32" height="33" viewBox="0 0 32 33" fill="none" xmlns="http://www.w3.org/2000/svg">
<path d="M14.87 19.9268C13.517 19.6998 12.308 19.2388 11.343 18.5168C9.895 17.4338 9 15.7598 9 14.1068C9 12.9748 9.421 11.9148 10.151 11.0098C10.487 10.5958 9.87 7.10376 11 7.58776C12.13 8.07276 13.252 8.73376 14.426 8.43576C15.234 8.22976 16.1 8.11876 17 8.11876C18.036 8.11876 19.027 8.26676 19.936 8.53476C20.785 8.78576 22.405 8.10176 23.51 7.58776C24.615 7.07476 23.371 10.4358 23.796 10.9468C24.56 11.8638 25 12.9468 25 14.1068C25 15.7598 24.26 17.4338 22.812 18.5178C21.965 19.1518 20.874 19.5838 19.672 19.8338C20.221 20.5528 20.495 21.1978 20.495 21.7698V25.5348M14.87 19.9258C14.29 20.5628 14.001 21.1658 14.001 21.7388V25.5348M8 20.2028C8.45 20.2568 8.783 20.4628 9 20.8208C9.326 21.3578 10.537 23.3468 11.913 23.3468H14M1 16.5347C1 8.2504 7.71573 1.53467 16 1.53467C24.2843 1.53467 31 8.2504 31 16.5347C31 24.8189 24.2843 31.5347 16 31.5347C7.71573 31.5347 1 24.8189 1 16.5347Z" stroke="white" stroke-width="1.5" stroke-linecap="round" stroke-linejoin="round"/>
</svg>
